<svg width="523" height="393" viewBox="0 0 523 393" fill="none" xmlns="http://www.w3.org/2000/svg">
<path d="M93.5076 253.141L199.079 222.356L304.651 253.141L199.499 297.482L93.5076 253.141Z" fill="#92511C"/>
<path d="M155.539 213.602L54.535 245.799L93.5077 253.142L199.079 222.357L155.539 213.602Z" fill="#D3833C"/>
<path d="M242.29 213.602L343.295 245.799L304.322 253.142L198.75 222.357L242.29 213.602Z" fill="#D3833C"/>
<path d="M299.243 231.81C300.703 230.293 378.091 223.154 384.783 246.141C391.475 269.128 267.116 337.451 267.116 337.451" stroke="#8ED4B8" stroke-width="3" stroke-miterlimit="10" stroke-linecap="round"/>
<ellipse cx="133.6" cy="271.768" rx="0.836503" ry="0.957792" fill="#8ED4B8"/>
<path d="M126.289 272.646C102.556 275.746 29.5116 287.383 35.1234 312.548C40.9945 338.872 109.51 341.763 126.254 342.076" stroke="#8ED4B8" stroke-width="3" stroke-miterlimit="10" stroke-linecap="round"/>
<ellipse cx="129.928" cy="342.114" rx="0.836503" ry="0.957792" fill="#8ED4B8"/>
<path d="M251.865 251.61C251.865 251.61 240.347 129.292 118.218 80.1254C-3.9119 30.9588 -10.053 118.437 14.4912 157.849C46.1077 208.618 226.963 334.898 341.285 80.1254C455.607 -174.647 498.269 -61.6278 498.269 -61.6278" stroke="#8ED4B8" stroke-width="3" stroke-miterlimit="10" stroke-linecap="round"/>
<ellipse cx="247.897" cy="267.345" rx="0.836503" ry="0.957792" fill="#8ED4B8"/>
<path d="M242.758 261.422C227.125 241.774 184.973 175.002 248.743 87.8146C288.887 32.928 259.351 -25.7853 250.845 -40.3418" stroke="#8ED4B8" stroke-width="3" stroke-miterlimit="10" stroke-linecap="round"/>
<path d="M364.491 57.3079C363.763 56.0717 358.866 47.2492 358.866 47.2492C358.866 47.2492 361.714 40.4067 360.472 39.652C359.23 38.8972 355.877 45.4326 355.877 45.4326C355.877 45.4326 346.751 45.7333 345.449 45.7359C343.678 45.7397 339.744 48.6635 342.823 49.295C345.901 49.9259 353.346 50.8052 353.346 50.8052L348.89 61.1927C348.89 61.1927 341.148 65.0603 349.355 63.6351C352.923 72.2163 351.382 62.7073 351.382 62.7073L356.399 52.6607C356.399 52.6607 361.207 59.2273 363.389 61.7929C365.571 64.3579 365.481 58.9885 364.491 57.3079Z" fill="#39343A"/>
<path d="M4.07043 160.415C5.3698 160.305 14.4894 159.819 14.4894 159.819C14.4894 159.819 18.262 166.048 19.4509 165.189C20.6399 164.329 17.3513 157.751 17.3513 157.751C17.3513 157.751 21.6554 148.532 22.3001 147.237C23.1762 145.476 22.9141 140.113 20.9059 142.86C18.8988 145.606 14.5351 152.568 14.5351 152.568L8.87419 142.981C8.87419 142.981 9.7871 133.366 6.79186 142.23C-1.48563 141.514 6.48792 144.705 6.48792 144.705L11.6123 154.68C11.6123 154.68 4.24665 156.197 1.21851 157.091C-1.80907 157.986 2.30485 160.562 4.07043 160.415Z" fill="#39343A"/>
<path opacity="0.2" d="M316.284 385.14C316.284 411.634 263.81 433.112 199.08 433.112C134.349 433.112 81.8749 401.645 81.8749 385.14C81.8749 358.647 134.349 362.71 199.08 362.71C263.81 362.711 316.284 358.647 316.284 385.14Z" fill="#818A8F"/>
<path d="M231.343 344.543C231.343 344.543 254.365 296.307 224.716 258.98C191.969 217.752 146.396 285.505 110.282 237.326C73.066 187.677 111.627 153.152 127.548 100.066C144.903 42.1988 118.448 -43.1353 57.7692 -48.2192" stroke="#39343A" stroke-width="55" stroke-miterlimit="10"/>
<path d="M231.343 344.543C231.343 344.543 254.365 296.307 224.716 258.98C191.969 217.752 146.396 285.505 110.282 237.326C73.066 187.677 111.627 153.152 127.548 100.066C144.903 42.1988 118.448 -43.1353 57.7692 -48.2192" stroke="black" stroke-width="42" stroke-miterlimit="10"/>
<path d="M231.343 344.543C231.343 344.543 254.365 296.307 224.716 258.98C191.969 217.752 146.396 285.505 110.282 237.326C73.066 187.677 111.627 153.152 127.548 100.066C144.903 42.1988 118.448 -43.1353 57.7692 -48.2192" stroke="#39343A" stroke-width="36" stroke-miterlimit="10"/>
<path d="M231.343 344.543C231.343 344.543 232.904 341.271 234.69 335.773" stroke="black" stroke-width="5" stroke-miterlimit="10"/>
<path d="M237.923 323.372C241.391 305.923 241.904 280.618 224.716 258.98C191.968 217.751 146.395 285.505 110.281 237.325C73.0655 187.677 111.626 153.152 127.548 100.066C143.524 46.7952 122.374 -29.7522 71.5754 -45.543" stroke="black" stroke-width="5" stroke-miterlimit="10" stroke-dasharray="29.78 20.28"/>
<path d="M189.042 103.112H183.465V116.521H189.042V103.112Z" fill="#818A8F"/>
<path d="M171.197 86.5103H169.524V116.521H171.197V86.5103Z" fill="#818A8F"/>
<path d="M196.292 91.6187H192.388V116.521H196.292V91.6187Z" fill="#818A8F"/>
<path d="M178.446 91.6187H175.1V116.521H178.446V91.6187Z" fill="#818A8F"/>
<path d="M202.426 119.598C202.426 117.044 200.962 114.605 198.73 114.605H193.683H184.593H180.552H173.483H170.454C168.223 114.605 166.178 117.043 166.178 119.598V129.292H202.426V119.598Z" fill="#C26C25"/>
<path d="M203.514 125.46H162.641C161.631 125.46 161.716 126.618 161.716 127.419V146.916L183.691 135.513L204.657 146.445V127.419C204.657 126.618 204.523 125.46 203.514 125.46Z" fill="#C6E6E8"/>
<path d="M208.561 148.448V127.419C208.561 123.464 206.544 121.629 203.514 121.629H202.77H166.414H162.64C159.61 121.629 158.37 123.464 158.37 127.419V148.448" fill="#BAC5D1"/>
<path d="M174.543 127.375H162.832V151.64H174.543V127.375Z" fill="#39343A"/>
<path d="M204.657 127.375H192.388V151.64H204.657V127.375Z" fill="#39343A"/>
<path d="M189.042 127.375H177.331V151.64H189.042V127.375Z" fill="#39343A"/>
<path d="M208.83 148.527L204.79 146.445L183.582 135.512L161.364 146.915L157.325 148.99L144.531 155.555L161.954 214.047C161.954 214.047 168.434 217.227 183.582 217.227C198.73 217.227 205.125 214.047 205.125 214.047L222.463 155.555L208.83 148.527Z" fill="#5F5152"/>
<mask id="mask0_22_364" style="mask-type:luminance" maskUnits="userSpaceOnUse" x="144" y="135" width="79" height="83">
<path d="M208.831 148.527L204.791 146.445L183.583 135.512L161.365 146.915L157.325 148.99L144.532 155.555L161.955 214.047C161.955 214.047 168.434 217.227 183.583 217.227C198.731 217.227 205.126 214.047 205.126 214.047L222.463 155.555L208.831 148.527Z" fill="white"/>
</mask>
<g mask="url(#mask0_22_364)">
<path d="M147.668 180.506L183.497 165.311L220.535 183.809L222.463 220.805C222.463 220.805 162.497 221.245 161.956 222.566C161.415 223.888 147.668 180.506 147.668 180.506Z" fill="#C26C25"/>
</g>
<mask id="mask1_22_364" style="mask-type:luminance" maskUnits="userSpaceOnUse" x="144" y="135" width="79" height="83">
<path d="M208.831 148.527L204.791 146.445L183.583 135.512L161.365 146.915L157.325 148.99L144.532 155.555L161.955 214.047C161.955 214.047 168.434 217.227 183.583 217.227C198.731 217.227 205.126 214.047 205.126 214.047L222.463 155.555L208.831 148.527Z" fill="white"/>
</mask>
<g mask="url(#mask1_22_364)">
<path d="M147.668 185.352L183.497 170.157L220.535 188.655L222.463 225.651C222.463 225.651 166.344 226.972 165.802 228.293C165.262 229.615 147.668 185.352 147.668 185.352Z" fill="#39343A"/>
</g>
<mask id="mask2_22_364" style="mask-type:luminance" maskUnits="userSpaceOnUse" x="144" y="135" width="79" height="83">
<path d="M208.831 148.527L204.791 146.445L183.583 135.512L161.365 146.915L157.325 148.99L144.532 155.555L161.955 214.047C161.955 214.047 168.434 217.227 183.583 217.227C198.731 217.227 205.126 214.047 205.126 214.047L222.463 155.555L208.831 148.527Z" fill="white"/>
</mask>
<g mask="url(#mask2_22_364)">
<path d="M183.498 179.022L179.267 225.71H183.498H187.729L183.498 179.022Z" fill="#202324"/>
</g>
<path d="M243.745 365.007C243.745 365.007 209.39 326.612 228.184 280.976C248.945 230.571 301.606 257.119 323.806 198.939C346.682 138.983 286.806 102.349 286.806 102.349" stroke="#39343A" stroke-width="55" stroke-miterlimit="10"/>
<path d="M243.745 365.007C243.745 365.007 209.39 326.612 228.184 280.976C248.945 230.571 301.606 257.119 323.806 198.939C346.682 138.983 286.806 102.349 286.806 102.349" stroke="black" stroke-width="42" stroke-miterlimit="10"/>
<path d="M243.745 365.007C243.745 365.007 209.39 326.612 228.184 280.976C248.945 230.571 301.606 257.119 323.806 198.939C346.682 138.983 286.806 102.349 286.806 102.349" stroke="#39343A" stroke-width="36" stroke-miterlimit="10"/>
<path d="M243.745 365.008C243.745 365.008 241.414 362.404 238.3 357.746" stroke="black" stroke-width="5" stroke-miterlimit="10"/>
<path d="M232.068 347.039C224.274 331.521 217.273 307.469 228.184 280.976C248.944 230.572 301.605 257.12 323.805 198.94C340.054 156.356 314.556 125.536 298.416 111.252" stroke="black" stroke-width="5" stroke-miterlimit="10" stroke-dasharray="29.6 20.16"/>
<path d="M293.881 107.449C289.659 104.095 286.806 102.35 286.806 102.35" stroke="black" stroke-width="5" stroke-miterlimit="10"/>
<path d="M104.394 267.835C98.8553 232.22 119.58 198.206 150.687 191.865C181.795 185.523 211.504 209.253 217.042 244.87C222.581 280.49 201.851 314.5 170.742 320.842C139.638 327.184 109.933 303.455 104.394 267.835Z" fill="#D3FEF7"/>
<mask id="mask3_22_364" style="mask-type:luminance" maskUnits="userSpaceOnUse" x="103" y="190" width="115" height="132">
<path d="M104.394 267.835C98.8553 232.22 119.58 198.206 150.687 191.865C181.795 185.523 211.504 209.253 217.042 244.87C222.581 280.49 201.851 314.5 170.742 320.842C139.638 327.184 109.933 303.455 104.394 267.835Z" fill="white"/>
</mask>
<g mask="url(#mask3_22_364)">
<path d="M104.394 267.835C98.8553 232.22 119.58 198.206 150.687 191.865C181.795 185.523 211.504 209.253 217.042 244.87C222.581 280.49 201.851 314.5 170.742 320.842C139.638 327.184 109.933 303.455 104.394 267.835Z" fill="#CDEDFF"/>
</g>
<mask id="mask4_22_364" style="mask-type:luminance" maskUnits="userSpaceOnUse" x="103" y="190" width="115" height="132">
<path d="M104.394 267.835C98.8553 232.22 119.58 198.206 150.687 191.865C181.795 185.523 211.504 209.253 217.042 244.87C222.581 280.49 201.851 314.5 170.742 320.842C139.638 327.184 109.933 303.455 104.394 267.835Z" fill="white"/>
</mask>
<g mask="url(#mask4_22_364)">
<path d="M161.164 282.824C160.734 284.11 161.455 286.887 160.605 288.309C159.467 290.215 157.28 291.063 157.549 293.951C157.616 294.678 157.224 295.16 156.749 295.355C155.618 298.533 154.301 301.272 154.488 304.767C155.662 307.46 157.833 309.832 158.627 312.684C158.907 313.703 158.849 314.544 158.553 315.159C158.527 315.247 158.521 315.343 158.482 315.42C158.325 315.929 157.816 316.224 157.301 316.205C156.852 316.328 156.33 316.335 155.746 316.183C155.388 316.086 155.131 315.645 155.043 315.254C149.248 313.279 144.941 308.028 143.993 300.847C143.455 296.774 144.273 291.852 140.518 289.181C139.597 288.523 138.032 287.701 137.467 286.491C135.915 283.175 136.939 281.223 137.533 278.13C136.408 276.015 132.016 274.737 130.484 272.305C128.79 269.596 127.132 268.323 126.371 265.107C125.364 260.864 119.673 261.829 117.109 259.531C115.527 258.11 112.827 256.21 112.031 253.961C110.565 249.812 109.791 244.921 109.35 240.482C108.891 235.863 106.701 232.231 105.944 227.883C105.389 224.689 105.037 216.959 107.601 214.799C108.072 214.401 108.58 214.483 108.959 214.777C111.466 210.826 115.187 207.936 116.169 203.176C117.288 197.767 120.84 193.465 124.469 189.934C127.835 186.654 135.273 181.999 138.002 186.154C138.318 186.121 138.645 186.212 138.933 186.51C139.51 187.112 140.006 187.968 140.417 188.977C141.359 190.157 141.938 191.894 142.256 193.815C143.871 196.571 144.877 199.793 143.291 202.854C142.72 203.95 142.042 204.813 141.222 205.459C140.179 207.111 138.577 207.762 136.666 208.148C135.213 208.913 133.816 209.797 132.34 210.526C131.754 210.749 131.158 210.932 130.546 211.075C130.12 212.444 130.231 213.705 130.875 214.858C131.48 216.654 132.497 219.313 131.382 221.15C130.073 223.306 128.76 223.524 126.637 223.995C125.454 226.605 126.206 228.105 128.9 228.484C129.639 228.611 130.376 228.754 131.116 228.908C131.131 228.91 131.145 228.913 131.162 228.918C132.591 228.308 133.822 227.342 134.972 225.937C136.299 224.321 138.063 221.502 140.169 221.102C145.481 220.087 147.174 225.568 146.262 230.644C145.394 235.482 147.095 239.745 149.381 243.821C151.045 246.778 153.098 248.396 153.874 251.814C154.905 256.38 147.81 258.693 145.298 259.036C143.461 259.29 134.296 255.652 135.732 261.992C136.355 264.734 135.859 266.701 134.859 269.13C134.842 269.546 134.788 269.965 134.706 270.445C134.352 272.554 138.231 271.812 139.314 271.465C140.771 270.993 141.961 270.402 143.219 270.153C143.917 269.734 144.591 269.487 145.154 269.677C145.986 269.96 146.745 270.308 147.511 270.656C150.705 271.361 153.448 271.46 154.624 274.677C155.426 275.179 156.237 275.689 157.088 276.191C159.083 277.362 162.193 279.739 161.164 282.824Z" fill="#FFC855"/>
<path d="M210.532 263.881C210.514 264.197 210.465 264.506 210.34 264.897C210.097 265.655 209.188 266.054 208.606 265.519C206.923 263.984 204.867 263.346 202.759 263.751C200.417 264.2 202.424 265.989 202.985 267.21C203.876 269.163 203.676 271.084 202.272 272.697C200.72 274.489 198.689 275.065 196.561 274.443C195.732 274.203 195.163 273.495 194.699 272.619C194.419 277.321 196.375 289.144 195.711 293.595C195.195 297.022 194.659 300.009 191.904 301.741C189.626 303.173 185.131 293.011 184.289 291.267C183.428 289.467 183.845 286.794 183.966 284.895C184.362 278.689 179.811 280.385 175.705 279.403C171.24 278.329 168.017 267.117 172.266 262.933C175.425 259.826 178.014 260.997 181.872 261.057C185.635 261.118 189.832 260.637 192.71 257.545C194.087 256.175 195.321 254.655 196.412 252.98C197.758 250.001 197.656 247.349 196.142 245.016C196.099 245.024 196.064 245.046 196.019 245.047C195.546 245.065 195.114 244.908 194.664 244.82C193.955 246.222 193.228 249.833 191.48 249.646C190.862 249.58 190.019 249.838 189.443 249.596C189.377 249.566 189.195 249.425 188.984 249.243C189.499 251.546 190.324 253.892 188.033 255.359C185.708 256.853 185.042 248.89 183.167 252.67C183.065 252.877 182.933 253.015 182.794 253.113C182.225 254.957 181.147 258.791 179.313 258.598C177.49 258.405 174.577 257.616 173.054 256.399C171.376 255.062 172.141 253.315 172.965 251.931C173.381 251.23 174.356 250.829 175.039 250.711C176.855 246.093 176.945 244.789 175.31 246.796C175.152 246.95 174.969 247.048 174.765 247.09C169.434 247.878 168.536 240.994 168.507 236.152C168.501 235 169.656 233.618 170.704 233.811C172.359 234.123 173.535 235.063 175.111 235.662C183.782 238.93 184.311 225.812 182.626 220.456C182.573 220.287 182.559 220.125 182.562 219.968C181.677 217.402 180.33 215.136 180.898 220.654C181.102 222.668 181.493 225.456 180.124 227.109C176.786 231.14 173.196 229.549 171.503 224.771C170.364 221.571 171.177 218.027 171.612 214.812C172.157 210.78 170.197 207.266 170.321 203.214C170.391 200.78 172.746 198.24 174.13 196.639C177.299 192.963 179.463 188.019 180.725 183.074C180.959 182.146 181.752 182.059 182.323 182.442C182.713 182.403 183.012 182.566 183.217 182.838C187.015 184.387 191.018 185.942 194.34 188.555C197.333 190.912 201.837 190.813 204.307 193.965C206.936 197.316 209.87 200.453 212.255 204.034C214.75 207.783 215.791 212.669 217.029 217.074C220.833 230.684 222.136 254.362 210.532 263.881Z" fill="#FFC855"/>
</g>
<path d="M297.704 258.039C297.875 262.352 294.962 266.008 291.196 266.204L230.42 269.384C226.653 269.581 223.461 266.245 223.288 261.932L220.512 192.344C220.34 188.032 223.253 184.377 227.019 184.179L287.796 180.999C291.562 180.802 294.754 184.138 294.927 188.451L297.704 258.039Z" fill="#414548"/>
<path d="M246.586 288.894L236.731 289.41L235.717 264.017L245.574 263.502L246.586 288.894Z" fill="#414548"/>
<path d="M237.735 227.734L229.85 228.146L230.075 233.789L237.96 233.377L237.735 227.734Z" fill="#818A8F"/>
<path d="M233.68 237.717C233.729 238.943 232.676 239.863 231.611 239.918L231.103 239.945C230.038 240.001 229.294 239.175 229.245 237.95L228.77 226.032C228.72 224.806 229.385 223.638 230.45 223.582L230.958 223.555C232.023 223.499 233.155 224.574 233.204 225.8L233.68 237.717Z" fill="#BAC5D1"/>
<path d="M288.996 225.045L281.111 225.458L281.336 231.101L289.222 230.688L288.996 225.045Z" fill="#818A8F"/>
<path d="M290.371 222.81C290.321 221.584 289.561 220.489 288.496 220.546L287.988 220.572C286.923 220.628 285.886 221.816 285.935 223.042L286.411 234.96C286.46 236.185 287.576 236.991 288.642 236.936L289.149 236.909C290.214 236.854 290.895 235.954 290.847 234.728L290.371 222.81Z" fill="#BAC5D1"/>
<path d="M285.026 286.883L275.663 287.372L274.65 261.98L284.013 261.491L285.026 286.883Z" fill="#414548"/>
<path d="M289.363 243.116L282.8 243.46L281.725 216.537C281.639 214.379 280.553 213.043 278.671 213.141L240.308 215.149C238.426 215.247 236.3 216.752 236.386 218.909L237.461 245.831L232.05 246.114C230.69 246.186 229.111 246.96 229.173 248.515L230.156 273.143C230.218 274.698 231.885 276.092 233.243 276.021L250.292 275.129L260.72 274.584L263.079 274.46L277.77 273.692L290.556 273.023C291.915 272.952 292.805 271.424 292.743 269.87L291.76 245.241C291.698 243.686 290.721 243.045 289.363 243.116Z" fill="#FFC855"/>
<mask id="mask5_22_364" style="mask-type:luminance" maskUnits="userSpaceOnUse" x="227" y="212" width="66" height="66">
<path d="M288.606 241.043L281.972 241.885L280.173 215.744C280.029 213.649 278.895 212.431 276.992 212.672L238.216 217.592C236.314 217.834 234.202 219.463 234.346 221.558L236.145 247.698L230.676 248.392C229.301 248.567 227.723 249.443 227.827 250.953L229.473 274.865C229.577 276.375 231.301 277.604 232.674 277.43L249.906 275.244L260.447 273.907L262.831 273.604L277.68 271.72L290.604 270.081C291.977 269.906 292.838 268.35 292.734 266.841L291.088 242.927C290.984 241.417 289.979 240.869 288.606 241.043Z" fill="white"/>
</mask>
<g mask="url(#mask5_22_364)">
<path d="M296.581 264.229L227.497 268.472L227.859 279.128L296.943 274.885L296.581 264.229Z" fill="black"/>
</g>
<path d="M243.631 256.988C243.664 256.672 243.676 256.351 243.663 256.022C243.534 252.788 241.139 250.287 238.314 250.433C235.489 250.582 233.304 253.322 233.433 256.558C233.446 256.886 233.483 257.205 233.54 257.516L243.631 256.988Z" fill="black"/>
<path d="M288.785 254.626C288.818 254.31 288.83 253.987 288.817 253.66C288.688 250.424 286.294 247.924 283.468 248.071C280.643 248.219 278.458 250.959 278.588 254.195C278.6 254.522 278.638 254.843 278.695 255.153L288.785 254.626Z" fill="black"/>
<path d="M279.147 238.563L240.215 240.6L239.382 219.722L278.314 217.685L279.147 238.563Z" fill="#C6E6E8"/>
<path opacity="0.3" d="M240.202 240.281L240.204 240.327L239.382 219.721L278.19 217.69L240.202 240.281Z" fill="black"/>
<path d="M274.609 273.348C274.621 273.629 274.432 273.867 274.187 273.879L249.447 275.174C249.202 275.187 248.995 274.97 248.984 274.688L247.898 247.492C247.886 247.211 248.076 246.973 248.321 246.96L273.061 245.666C273.306 245.653 273.514 245.87 273.524 246.151L274.609 273.348Z" fill="black"/>
<path d="M271.198 249.154L250.499 250.238L250.589 252.495L271.288 251.411L271.198 249.154Z" fill="#39343A"/>
<path d="M271.349 253.114L250.65 254.198L250.695 255.327L271.394 254.242L271.349 253.114Z" fill="#39343A"/>
<path d="M271.492 256.49L250.792 257.574L250.86 259.267L271.559 258.183L271.492 256.49Z" fill="#39343A"/>
<path d="M271.629 260.466L250.931 261.547L250.976 262.676L271.674 261.594L271.629 260.466Z" fill="#39343A"/>
<path d="M271.762 263.262L251.063 264.346L251.153 266.603L271.852 265.519L271.762 263.262Z" fill="#39343A"/>
<path opacity="0.4" d="M197.965 192.205C197.965 192.205 197.634 192.324 197.014 192.574C189.167 195.745 153.909 222.358 120.228 288.743L148.815 296.587C148.815 296.587 166.873 261.938 227.28 191.23L229.194 175.047" fill="black"/>
<path d="M253.399 153.725C253.399 153.725 256.376 156.164 256.084 159.261C255.789 162.359 246.748 168.097 241.382 166.734L253.399 153.725Z" fill="#39343A"/>
<path d="M190.664 191.867C190.664 191.867 250.564 132.393 253.508 129.471C256.45 126.55 262.218 123.557 269.538 123.254C276.683 122.96 286.856 120.73 274.716 134.077C262.578 147.423 217.499 194.444 203.824 203.271C190.151 212.1 151.712 231.048 169.734 214.018L148.669 197.157L153.834 192.028C153.834 192.028 181.193 201.27 190.664 191.867Z" fill="#818A8F"/>
<mask id="mask6_22_364" style="mask-type:luminance" maskUnits="userSpaceOnUse" x="148" y="122" width="133" height="99">
<path d="M190.664 191.867C190.664 191.867 250.565 132.393 253.509 129.471C256.45 126.55 262.219 123.557 269.538 123.254C276.684 122.96 286.856 120.73 274.717 134.077C262.578 147.423 217.499 194.444 203.825 203.271C190.151 212.1 151.713 231.048 169.734 214.018L148.669 197.157L153.835 192.028C153.834 192.028 181.193 201.27 190.664 191.867Z" fill="white"/>
</mask>
<g mask="url(#mask6_22_364)">
<path d="M276.762 115.576C276.503 115.88 276.246 116.186 275.989 116.491C275.736 116.455 275.457 116.497 275.167 116.652C274.391 117.066 273.667 117.633 272.974 118.269C273.019 117.835 272.656 117.603 272.232 117.71C269.777 118.326 258.482 129.563 261.845 132.859C265.076 136.027 277.382 122.391 279.844 117.869C280.775 116.161 277.92 114.216 276.762 115.576Z" fill="#39343A"/>
</g>
<mask id="mask7_22_364" style="mask-type:luminance" maskUnits="userSpaceOnUse" x="148" y="122" width="133" height="99">
<path d="M190.664 191.867C190.664 191.867 250.565 132.393 253.509 129.471C256.45 126.55 262.219 123.557 269.538 123.254C276.684 122.96 286.856 120.73 274.717 134.077C262.578 147.423 217.499 194.444 203.825 203.271C190.151 212.1 151.713 231.048 169.734 214.018L148.669 197.157L153.835 192.028C153.834 192.028 181.193 201.27 190.664 191.867Z" fill="white"/>
</mask>
<g mask="url(#mask7_22_364)">
<path d="M174.525 190.171C170.937 193.195 167.423 196.3 163.565 198.87C161.568 200.198 159.751 201.669 157.557 202.587C156.085 203.203 154.788 203.181 153.366 203.969C152.776 204.296 153.233 205.281 153.813 205.117C155.665 204.595 157.356 204.693 159.186 203.984C161.109 203.238 162.739 201.717 164.531 200.675C168.569 198.325 172.198 195.07 175.555 191.617C176.243 190.91 175.27 189.546 174.525 190.171Z" fill="#FFF8F9"/>
</g>
<mask id="mask8_22_364" style="mask-type:luminance" maskUnits="userSpaceOnUse" x="148" y="122" width="133" height="99">
<path d="M190.664 191.867C190.664 191.867 250.565 132.393 253.509 129.471C256.45 126.55 262.219 123.557 269.538 123.254C276.684 122.96 286.856 120.73 274.717 134.077C262.578 147.423 217.499 194.444 203.825 203.271C190.151 212.1 151.713 231.048 169.734 214.018L148.669 197.157L153.835 192.028C153.834 192.028 181.193 201.27 190.664 191.867Z" fill="white"/>
</mask>
<g mask="url(#mask8_22_364)">
<path d="M185.312 185.389C180.583 190.479 175.763 195.379 170.473 199.702C165.026 204.153 159.572 207.084 153.364 209.801C152.959 209.977 153.138 210.669 153.561 210.54C156.128 209.751 158.539 209.442 161.008 208.149C164.268 206.442 167.216 204.321 170.235 202.127C176.191 197.801 181.579 192.403 186.532 186.679C187.291 185.802 186.085 184.557 185.312 185.389Z" fill="#FFF8F9"/>
</g>
<mask id="mask9_22_364" style="mask-type:luminance" maskUnits="userSpaceOnUse" x="148" y="122" width="133" height="99">
<path d="M190.664 191.867C190.664 191.867 250.565 132.393 253.509 129.471C256.45 126.55 262.219 123.557 269.538 123.254C276.684 122.96 286.856 120.73 274.717 134.077C262.578 147.423 217.499 194.444 203.825 203.271C190.151 212.1 151.713 231.048 169.734 214.018L148.669 197.157L153.835 192.028C153.834 192.028 181.193 201.27 190.664 191.867Z" fill="white"/>
</mask>
<g mask="url(#mask9_22_364)">
<path d="M278.063 145.968C268.006 149.087 258.254 154.293 248.541 158.589C239.02 162.797 229.56 167.096 220.75 173.058C212.877 178.384 206.14 185.119 200.358 193.219C197.61 197.066 195.19 201.228 192.83 205.389C190.913 208.769 188.38 213.24 188.35 217.419C188.344 218.302 189.573 218.446 189.7 217.565C190.365 212.925 193.844 208.046 196.185 204.402C198.675 200.524 201.105 196.666 203.88 193.042C210.062 184.969 217.576 178.812 225.793 173.742C242.769 163.27 262.036 158.772 279.209 148.912C280.695 148.059 279.563 145.504 278.063 145.968Z" fill="#FFF8F9"/>
</g>
<path d="M238.372 167.738C238.372 167.738 242.379 173.28 241.268 176.541C240.156 179.803 234.473 181.55 230.79 183.263C227.107 184.977 223.486 187.165 221.37 184.619L238.372 167.738Z" fill="#39343A"/>
<path d="M183.736 199.229C183.736 199.229 182.407 200.684 179.004 203.809C166.027 202.117 156.624 196.037 156.624 196.037C156.624 196.037 177.331 201.165 183.736 199.229Z" fill="#39343A"/>
<path d="M252.578 146.241C252.578 146.241 229.871 187.799 226.995 192.99C224.12 198.184 207.575 210.768 203.316 214.164C193.766 221.779 213.315 201.147 217.303 195.925C221.293 190.705 223.342 175.789 223.342 175.789" fill="#818A8F"/>
<path d="M243.313 152.946C243.717 153.48 244.42 153.537 244.885 153.076C245.351 152.614 245.401 151.809 244.997 151.274C244.593 150.741 243.89 150.685 243.426 151.146C242.961 151.608 242.91 152.415 243.313 152.946Z" fill="#BAC5D1"/>
<path d="M238.818 157.409C239.223 157.942 239.928 157.998 240.393 157.537C240.858 157.074 240.909 156.267 240.504 155.736C240.101 155.204 239.396 155.146 238.931 155.608C238.467 156.07 238.417 156.876 238.818 157.409Z" fill="#BAC5D1"/>
<path d="M234.329 161.87C234.73 162.403 235.433 162.459 235.899 161.998C236.365 161.535 236.413 160.73 236.011 160.197C235.607 159.664 234.904 159.606 234.438 160.069C233.973 160.53 233.923 161.337 234.329 161.87Z" fill="#BAC5D1"/>
<path d="M229.833 166.331C230.236 166.864 230.941 166.92 231.406 166.458C231.871 165.997 231.922 165.19 231.518 164.658C231.114 164.126 230.41 164.068 229.945 164.529C229.479 164.991 229.43 165.798 229.833 166.331Z" fill="#BAC5D1"/>
<path d="M225.34 170.793C225.743 171.325 226.448 171.383 226.914 170.92C227.377 170.459 227.429 169.652 227.024 169.119C226.621 168.587 225.916 168.531 225.452 168.991C224.986 169.453 224.935 170.259 225.34 170.793Z" fill="#BAC5D1"/>
<path d="M220.847 175.253C221.25 175.785 221.954 175.844 222.419 175.381C222.884 174.92 222.934 174.114 222.532 173.581C222.127 173.048 221.423 172.99 220.957 173.453C220.493 173.914 220.444 174.721 220.847 175.253Z" fill="#BAC5D1"/>
<path d="M216.353 179.714C216.757 180.248 217.461 180.304 217.927 179.843C218.392 179.382 218.442 178.574 218.038 178.041C217.634 177.508 216.93 177.452 216.466 177.913C216.001 178.375 215.95 179.183 216.353 179.714Z" fill="#BAC5D1"/>
<path d="M211.86 184.176C212.263 184.708 212.967 184.765 213.434 184.303C213.898 183.842 213.948 183.037 213.544 182.504C213.141 181.97 212.437 181.913 211.972 182.375C211.507 182.836 211.456 183.643 211.86 184.176Z" fill="#BAC5D1"/>
<path d="M207.368 188.637C207.77 189.17 208.475 189.227 208.939 188.765C209.404 188.304 209.456 187.497 209.052 186.965C208.647 186.432 207.942 186.375 207.479 186.837C207.013 187.297 206.963 188.103 207.368 188.637Z" fill="#BAC5D1"/>
<path d="M203.563 192.798C203.967 193.331 204.672 193.388 205.135 192.926C205.601 192.464 205.652 191.657 205.248 191.125C204.844 190.593 204.14 190.535 203.675 190.997C203.21 191.457 203.16 192.265 203.563 192.798Z" fill="#BAC5D1"/>
<path d="M199.08 424.857L304.479 384.924V253.141L199.08 293.075V424.857Z" fill="#D3833C"/>
<path d="M199.165 424.857L93.6802 384.924V253.141L199.366 293.016L199.165 424.857Z" fill="#C26C25"/>
<path opacity="0.1" d="M95.911 382.764C95.911 383.237 95.7113 383.622 95.3533 383.622C94.9953 383.622 94.7957 383.237 94.7957 382.764V257.389C94.7957 256.914 94.9953 256.529 95.3533 256.529C95.7113 256.529 95.911 256.914 95.911 257.389V382.764Z" fill="black"/>
<path opacity="0.1" d="M99.8036 259.15C99.8036 258.699 99.9324 258.332 100.274 258.332C100.29 258.332 100.297 258.351 100.297 258.374C100.638 258.374 100.767 264.71 100.767 265.162C100.767 265.184 100.76 384.607 100.743 384.607C100.743 385.059 100.614 385.425 100.274 385.425C100.256 385.425 100.25 385.407 100.25 385.384C99.9095 385.384 99.7802 379.048 99.7802 378.596C99.7802 378.573 99.7868 259.15 99.8036 259.15Z" fill="black"/>
<path opacity="0.1" d="M104.619 260.912C104.619 260.482 104.742 260.134 105.066 260.134C105.1 260.134 105.112 260.171 105.112 260.216C105.436 260.216 105.558 272.504 105.558 272.934C105.558 272.98 105.546 386.45 105.511 386.45C105.511 386.879 105.388 387.227 105.065 387.227C105.031 387.227 105.018 387.19 105.018 387.145C104.695 387.145 104.571 374.857 104.571 374.428C104.572 374.383 104.585 260.912 104.619 260.912Z" fill="black"/>
<path opacity="0.1" d="M109.436 262.672C109.436 262.266 109.552 261.936 109.858 261.936C109.91 261.936 109.929 261.992 109.929 262.059C110.235 262.059 110.351 280.299 110.351 280.706C110.351 280.773 110.332 388.292 110.281 388.292C110.281 388.699 110.165 389.028 109.858 389.028C109.807 389.028 109.788 388.974 109.788 388.906C109.481 388.906 109.365 370.666 109.365 370.259C109.365 370.191 109.385 262.672 109.436 262.672Z" fill="black"/>
<path opacity="0.1" d="M114.251 264.433C114.251 264.049 114.361 263.738 114.65 263.738C114.718 263.738 114.744 263.811 114.744 263.902C115.034 263.902 115.144 288.094 115.144 288.478C115.144 288.569 115.118 390.136 115.05 390.136C115.05 390.519 114.94 390.83 114.65 390.83C114.582 390.83 114.557 390.758 114.557 390.668C114.267 390.668 114.157 366.475 114.157 366.091C114.157 366.001 114.183 264.433 114.251 264.433Z" fill="black"/>
<path opacity="0.1" d="M119.067 266.195C119.067 265.833 119.17 265.541 119.443 265.541C119.528 265.541 119.56 265.632 119.56 265.745C119.833 265.745 119.936 295.889 119.936 296.251C119.936 296.364 119.904 391.979 119.819 391.979C119.819 392.34 119.715 392.632 119.443 392.632C119.358 392.632 119.325 392.541 119.325 392.428C119.053 392.428 118.949 362.285 118.949 361.924C118.949 361.809 118.982 266.195 119.067 266.195Z" fill="black"/>
<path opacity="0.1" d="M123.883 267.956C123.883 267.617 123.98 267.343 124.235 267.343C124.338 267.343 124.376 267.453 124.376 267.589C124.632 267.589 124.729 303.684 124.729 304.022C124.729 304.158 124.69 393.822 124.588 393.822C124.588 394.16 124.491 394.435 124.235 394.435C124.133 394.435 124.095 394.325 124.095 394.19C123.839 394.19 123.742 358.094 123.742 357.754C123.742 357.62 123.781 267.956 123.883 267.956Z" fill="black"/>
<path opacity="0.1" d="M128.699 269.718C128.699 269.401 128.789 269.146 129.028 269.146C129.147 269.146 129.192 269.273 129.192 269.431C129.431 269.431 129.521 311.479 129.521 311.795C129.521 311.954 129.475 395.665 129.357 395.665C129.357 395.981 129.266 396.237 129.028 396.237C128.909 396.237 128.864 396.109 128.864 395.951C128.625 395.951 128.535 353.903 128.535 353.586C128.534 353.428 128.579 269.718 128.699 269.718Z" fill="black"/>
<path opacity="0.1" d="M133.514 271.479C133.514 271.185 133.598 270.947 133.82 270.947C133.956 270.947 134.007 271.093 134.007 271.274C134.229 271.274 134.312 319.274 134.312 319.567C134.312 319.748 134.261 397.508 134.125 397.508C134.125 397.802 134.041 398.04 133.82 398.04C133.683 398.04 133.632 397.894 133.632 397.712C133.41 397.712 133.327 349.713 133.327 349.419C133.327 349.237 133.378 271.479 133.514 271.479Z" fill="black"/>
<path opacity="0.1" d="M138.33 273.241C138.33 272.971 138.407 272.751 138.612 272.751C138.765 272.751 138.823 272.915 138.823 273.119C139.027 273.119 139.105 327.07 139.105 327.341C139.105 327.544 139.047 399.352 138.893 399.352C138.893 399.623 138.816 399.842 138.612 399.842C138.458 399.842 138.4 399.677 138.4 399.474C138.196 399.474 138.119 345.523 138.119 345.251C138.119 345.049 138.177 273.241 138.33 273.241Z" fill="black"/>
<path opacity="0.1" d="M143.146 275.002C143.146 274.754 143.217 274.552 143.405 274.552C143.575 274.552 143.639 274.735 143.639 274.961C143.827 274.961 143.898 334.865 143.898 335.114C143.898 335.338 143.833 401.195 143.663 401.195C143.663 401.444 143.592 401.644 143.405 401.644C143.234 401.644 143.17 401.461 143.17 401.235C142.983 401.235 142.911 341.332 142.911 341.083C142.911 340.857 142.975 275.002 143.146 275.002Z" fill="black"/>
<path opacity="0.1" d="M147.962 276.763C147.962 276.537 148.026 276.354 148.196 276.354C148.384 276.354 148.455 276.554 148.455 276.804C148.625 276.804 148.69 342.659 148.69 342.885C148.69 343.134 148.619 403.037 148.431 403.037C148.431 403.263 148.366 403.447 148.196 403.447C148.009 403.447 147.938 403.245 147.938 402.996C147.768 402.996 147.703 337.141 147.703 336.915C147.703 336.667 147.774 276.763 147.962 276.763Z" fill="black"/>
<path opacity="0.1" d="M152.777 278.524C152.777 278.321 152.836 278.156 152.989 278.156C153.193 278.156 153.271 278.376 153.271 278.647C153.424 278.647 153.482 350.455 153.482 350.657C153.482 350.929 153.404 404.881 153.2 404.881C153.2 405.084 153.142 405.248 152.989 405.248C152.785 405.248 152.707 405.029 152.707 404.758C152.554 404.758 152.496 332.95 152.496 332.747C152.495 332.476 152.573 278.524 152.777 278.524Z" fill="black"/>
<path opacity="0.1" d="M157.593 280.285C157.593 280.105 157.645 279.958 157.781 279.958C158.002 279.958 158.087 280.196 158.087 280.49C158.223 280.49 158.275 358.249 158.275 358.43C158.275 358.724 158.191 406.723 157.969 406.723C157.969 406.904 157.917 407.052 157.781 407.052C157.56 407.052 157.477 406.814 157.477 406.52C157.34 406.52 157.289 328.761 157.289 328.579C157.288 328.285 157.372 280.285 157.593 280.285Z" fill="black"/>
<path opacity="0.1" d="M162.41 282.047C162.41 281.888 162.455 281.761 162.574 281.761C162.812 281.761 162.903 282.016 162.903 282.333C163.021 282.333 163.067 366.044 163.067 366.203C163.067 366.519 162.977 408.567 162.738 408.567C162.738 408.725 162.693 408.853 162.574 408.853C162.335 408.853 162.245 408.597 162.245 408.281C162.126 408.281 162.081 324.569 162.081 324.411C162.08 324.094 162.171 282.047 162.41 282.047Z" fill="black"/>
<path opacity="0.1" d="M167.225 283.808C167.225 283.672 167.264 283.562 167.366 283.562C167.621 283.562 167.718 283.838 167.718 284.176C167.82 284.176 167.859 373.839 167.859 373.975C167.859 374.313 167.762 410.409 167.506 410.409C167.506 410.545 167.468 410.655 167.365 410.655C167.11 410.655 167.013 410.38 167.013 410.041C166.911 410.041 166.872 320.378 166.872 320.243C166.873 319.905 166.969 283.808 167.225 283.808Z" fill="black"/>
<path opacity="0.1" d="M172.04 285.569C172.04 285.456 172.073 285.364 172.158 285.364C172.43 285.364 172.534 285.657 172.534 286.018C172.619 286.018 172.652 381.633 172.652 381.746C172.652 382.108 172.548 412.252 172.276 412.252C172.276 412.365 172.243 412.456 172.159 412.456C171.886 412.456 171.783 412.163 171.783 411.802C171.698 411.802 171.665 316.187 171.665 316.074C171.665 315.712 171.768 285.569 172.04 285.569Z" fill="black"/>
<path opacity="0.1" d="M176.857 287.331C176.857 287.241 176.882 287.167 176.95 287.167C177.24 287.167 177.35 287.478 177.35 287.863C177.418 287.863 177.443 389.43 177.443 389.52C177.443 389.904 177.333 414.097 177.044 414.097C177.044 414.187 177.018 414.26 176.95 414.26C176.66 414.26 176.551 413.949 176.551 413.565C176.483 413.565 176.457 311.998 176.457 311.907C176.457 311.523 176.567 287.331 176.857 287.331Z" fill="black"/>
<path opacity="0.1" d="M181.672 289.091C181.672 289.024 181.692 288.969 181.742 288.969C182.049 288.969 182.166 289.298 182.166 289.704C182.216 289.704 182.236 397.223 182.236 397.291C182.236 397.699 182.12 415.938 181.813 415.938C181.813 416.006 181.794 416.061 181.743 416.061C181.437 416.061 181.32 415.731 181.32 415.324C181.269 415.324 181.25 307.805 181.25 307.738C181.249 307.331 181.366 289.091 181.672 289.091Z" fill="black"/>
<path opacity="0.1" d="M186.488 290.852C186.488 290.807 186.501 290.77 186.536 290.77C186.859 290.77 186.982 291.118 186.982 291.547C187.016 291.547 187.029 405.019 187.029 405.063C187.029 405.492 186.906 417.781 186.582 417.781C186.582 417.826 186.57 417.863 186.536 417.863C186.212 417.863 186.089 417.515 186.089 417.085C186.055 417.085 186.042 303.615 186.042 303.569C186.042 303.141 186.165 290.852 186.488 290.852Z" fill="black"/>
<path opacity="0.1" d="M191.304 292.614C191.304 292.591 191.311 292.573 191.327 292.573C191.668 292.573 191.797 292.939 191.797 293.39C191.814 293.39 191.821 412.813 191.821 412.836C191.821 413.288 191.692 419.624 191.351 419.624C191.351 419.647 191.345 419.665 191.328 419.665C190.987 419.665 190.858 419.299 190.858 418.847C190.841 418.847 190.834 299.424 190.834 299.402C190.834 298.95 190.963 292.614 191.304 292.614Z" fill="black"/>
<path opacity="0.1" d="M196.849 420.608C196.849 421.083 196.649 421.467 196.291 421.467C195.933 421.467 195.734 421.083 195.734 420.608V295.233C195.734 294.759 195.933 294.374 196.291 294.374C196.649 294.374 196.849 294.759 196.849 295.233V420.608Z" fill="black"/>
<path opacity="0.1" d="M302.248 382.764C302.248 383.237 302.448 383.622 302.806 383.622C303.163 383.622 303.364 383.237 303.364 382.764V257.389C303.364 256.914 303.163 256.529 302.806 256.529C302.448 256.529 302.248 256.914 302.248 257.389V382.764Z" fill="black"/>
<path opacity="0.1" d="M298.355 259.15C298.355 258.699 298.226 258.332 297.885 258.332C297.868 258.332 297.862 258.351 297.862 258.374C297.521 258.374 297.391 264.71 297.391 265.162C297.391 265.184 297.398 384.607 297.415 384.607C297.415 385.059 297.544 385.425 297.885 385.425C297.902 385.425 297.908 385.407 297.908 385.384C298.249 385.384 298.379 379.048 298.379 378.596C298.379 378.573 298.373 259.15 298.355 259.15Z" fill="black"/>
<path opacity="0.1" d="M293.541 260.912C293.541 260.482 293.417 260.134 293.094 260.134C293.059 260.134 293.047 260.171 293.047 260.216C292.723 260.216 292.601 272.504 292.601 272.934C292.601 272.98 292.613 386.45 292.647 386.45C292.647 386.879 292.771 387.227 293.094 387.227C293.127 387.227 293.141 387.19 293.141 387.145C293.464 387.145 293.588 374.857 293.588 374.428C293.588 374.383 293.574 260.912 293.541 260.912Z" fill="black"/>
<path opacity="0.1" d="M288.724 262.672C288.724 262.266 288.608 261.936 288.301 261.936C288.25 261.936 288.231 261.992 288.231 262.059C287.924 262.059 287.807 280.299 287.807 280.706C287.807 280.773 287.827 388.292 287.878 388.292C287.878 388.699 287.994 389.028 288.301 389.028C288.352 389.028 288.371 388.974 288.371 388.906C288.678 388.906 288.795 370.666 288.795 370.259C288.795 370.191 288.775 262.672 288.724 262.672Z" fill="black"/>
<path opacity="0.1" d="M283.908 264.433C283.908 264.049 283.798 263.738 283.508 263.738C283.44 263.738 283.415 263.811 283.415 263.902C283.125 263.902 283.015 288.094 283.015 288.478C283.015 288.569 283.041 390.136 283.109 390.136C283.109 390.519 283.218 390.83 283.508 390.83C283.577 390.83 283.602 390.758 283.602 390.668C283.891 390.668 284.002 366.475 284.002 366.091C284.002 366.001 283.976 264.433 283.908 264.433Z" fill="black"/>
<path opacity="0.1" d="M279.092 266.195C279.092 265.833 278.989 265.541 278.716 265.541C278.631 265.541 278.599 265.632 278.599 265.745C278.326 265.745 278.223 295.889 278.223 296.251C278.223 296.364 278.255 391.979 278.34 391.979C278.34 392.34 278.444 392.632 278.716 392.632C278.801 392.632 278.834 392.541 278.834 392.428C279.106 392.428 279.209 362.285 279.209 361.924C279.21 361.809 279.178 266.195 279.092 266.195Z" fill="black"/>
<path opacity="0.1" d="M274.277 267.956C274.277 267.617 274.18 267.343 273.925 267.343C273.822 267.343 273.783 267.453 273.783 267.589C273.527 267.589 273.431 303.684 273.431 304.022C273.431 304.158 273.47 393.822 273.572 393.822C273.572 394.16 273.669 394.435 273.925 394.435C274.027 394.435 274.066 394.325 274.066 394.19C274.321 394.19 274.418 358.094 274.418 357.754C274.418 357.62 274.379 267.956 274.277 267.956Z" fill="black"/>
<path opacity="0.1" d="M269.461 269.718C269.461 269.401 269.37 269.146 269.132 269.146C269.012 269.146 268.967 269.273 268.967 269.431C268.729 269.431 268.638 311.479 268.638 311.795C268.638 311.954 268.683 395.665 268.803 395.665C268.803 395.981 268.893 396.237 269.132 396.237C269.251 396.237 269.296 396.109 269.296 395.951C269.535 395.951 269.625 353.903 269.625 353.586C269.625 353.428 269.58 269.718 269.461 269.718Z" fill="black"/>
<path opacity="0.1" d="M264.645 271.479C264.645 271.185 264.561 270.947 264.34 270.947C264.203 270.947 264.152 271.093 264.152 271.274C263.93 271.274 263.846 319.274 263.846 319.567C263.846 319.748 263.898 397.508 264.034 397.508C264.034 397.802 264.118 398.04 264.34 398.04C264.476 398.04 264.528 397.894 264.528 397.712C264.748 397.712 264.833 349.713 264.833 349.419C264.833 349.237 264.781 271.479 264.645 271.479Z" fill="black"/>
<path opacity="0.1" d="M259.829 273.241C259.829 272.971 259.752 272.751 259.547 272.751C259.394 272.751 259.336 272.915 259.336 273.119C259.131 273.119 259.054 327.07 259.054 327.341C259.054 327.544 259.112 399.352 259.265 399.352C259.265 399.623 259.343 399.842 259.547 399.842C259.7 399.842 259.759 399.677 259.759 399.474C259.963 399.474 260.04 345.523 260.04 345.251C260.04 345.049 259.982 273.241 259.829 273.241Z" fill="black"/>
<path opacity="0.1" d="M255.013 275.002C255.013 274.754 254.942 274.552 254.755 274.552C254.584 274.552 254.52 274.735 254.52 274.961C254.332 274.961 254.261 334.865 254.261 335.114C254.261 335.338 254.326 401.195 254.497 401.195C254.497 401.444 254.567 401.644 254.755 401.644C254.925 401.644 254.99 401.461 254.99 401.235C255.177 401.235 255.249 341.332 255.249 341.083C255.249 340.857 255.184 275.002 255.013 275.002Z" fill="black"/>
<path opacity="0.1" d="M250.198 276.763C250.198 276.537 250.133 276.354 249.962 276.354C249.775 276.354 249.704 276.554 249.704 276.804C249.534 276.804 249.469 342.659 249.469 342.885C249.469 343.134 249.54 403.037 249.728 403.037C249.728 403.263 249.792 403.447 249.962 403.447C250.15 403.447 250.221 403.245 250.221 402.996C250.391 402.996 250.456 337.141 250.456 336.915C250.456 336.667 250.385 276.763 250.198 276.763Z" fill="black"/>
<path opacity="0.1" d="M245.382 278.524C245.382 278.321 245.324 278.156 245.17 278.156C244.966 278.156 244.888 278.376 244.888 278.647C244.735 278.647 244.677 350.455 244.677 350.657C244.677 350.929 244.754 404.881 244.959 404.881C244.959 405.084 245.016 405.248 245.17 405.248C245.375 405.248 245.452 405.029 245.452 404.758C245.605 404.758 245.663 332.95 245.663 332.747C245.663 332.476 245.586 278.524 245.382 278.524Z" fill="black"/>
<path opacity="0.1" d="M240.566 280.285C240.566 280.105 240.514 279.958 240.378 279.958C240.157 279.958 240.073 280.196 240.073 280.49C239.937 280.49 239.885 358.249 239.885 358.43C239.885 358.724 239.968 406.723 240.19 406.723C240.19 406.904 240.242 407.052 240.378 407.052C240.599 407.052 240.683 406.814 240.683 406.52C240.82 406.52 240.871 328.761 240.871 328.579C240.871 328.285 240.787 280.285 240.566 280.285Z" fill="black"/>
<path opacity="0.1" d="M235.75 282.047C235.75 281.888 235.705 281.761 235.586 281.761C235.347 281.761 235.257 282.016 235.257 282.333C235.137 282.333 235.092 366.044 235.092 366.203C235.092 366.519 235.183 408.567 235.421 408.567C235.421 408.725 235.466 408.853 235.586 408.853C235.825 408.853 235.915 408.597 235.915 408.281C236.034 408.281 236.079 324.569 236.079 324.411C236.079 324.094 235.989 282.047 235.75 282.047Z" fill="black"/>
<path opacity="0.1" d="M230.934 283.808C230.934 283.672 230.896 283.562 230.793 283.562C230.538 283.562 230.441 283.838 230.441 284.176C230.339 284.176 230.3 373.839 230.3 373.975C230.3 374.313 230.397 410.409 230.653 410.409C230.653 410.545 230.69 410.655 230.793 410.655C231.049 410.655 231.146 410.38 231.146 410.041C231.248 410.041 231.287 320.378 231.287 320.243C231.287 319.905 231.19 283.808 230.934 283.808Z" fill="black"/>
<path opacity="0.1" d="M226.118 285.569C226.118 285.456 226.086 285.364 226.001 285.364C225.729 285.364 225.625 285.657 225.625 286.018C225.54 286.018 225.508 381.633 225.508 381.746C225.508 382.108 225.611 412.252 225.884 412.252C225.884 412.365 225.916 412.456 226.001 412.456C226.273 412.456 226.377 412.163 226.377 411.802C226.462 411.802 226.494 316.187 226.494 316.074C226.494 315.712 226.391 285.569 226.118 285.569Z" fill="black"/>
<path opacity="0.1" d="M221.303 287.331C221.303 287.241 221.277 287.167 221.209 287.167C220.92 287.167 220.81 287.478 220.81 287.863C220.742 287.863 220.715 389.43 220.715 389.52C220.715 389.904 220.825 414.097 221.115 414.097C221.115 414.187 221.141 414.26 221.209 414.26C221.499 414.26 221.609 413.949 221.609 413.565C221.676 413.565 221.703 311.998 221.703 311.907C221.702 311.523 221.592 287.331 221.303 287.331Z" fill="black"/>
<path opacity="0.1" d="M216.487 289.091C216.487 289.024 216.468 288.969 216.417 288.969C216.11 288.969 215.993 289.298 215.993 289.704C215.943 289.704 215.923 397.223 215.923 397.291C215.923 397.699 216.04 415.938 216.346 415.938C216.346 416.006 216.365 416.061 216.417 416.061C216.723 416.061 216.84 415.731 216.84 415.324C216.891 415.324 216.91 307.805 216.91 307.738C216.91 307.331 216.794 289.091 216.487 289.091Z" fill="black"/>
<path opacity="0.1" d="M211.671 290.852C211.671 290.807 211.658 290.77 211.624 290.77C211.3 290.77 211.178 291.118 211.178 291.547C211.144 291.547 211.13 405.019 211.13 405.063C211.13 405.492 211.254 417.781 211.577 417.781C211.577 417.826 211.59 417.863 211.624 417.863C211.947 417.863 212.071 417.515 212.071 417.085C212.105 417.085 212.117 303.615 212.117 303.569C212.117 303.141 211.995 290.852 211.671 290.852Z" fill="black"/>
<path opacity="0.1" d="M206.855 292.614C206.855 292.591 206.848 292.573 206.832 292.573C206.491 292.573 206.362 292.939 206.362 293.39C206.345 293.39 206.339 412.813 206.339 412.836C206.339 413.288 206.468 419.624 206.808 419.624C206.808 419.647 206.815 419.665 206.832 419.665C207.172 419.665 207.302 419.299 207.302 418.847C207.319 418.847 207.325 299.424 207.325 299.402C207.325 298.95 207.196 292.614 206.855 292.614Z" fill="black"/>
<path opacity="0.1" d="M201.31 420.608C201.31 421.083 201.511 421.467 201.868 421.467C202.226 421.467 202.426 421.083 202.426 420.608V295.233C202.426 294.759 202.226 294.374 201.868 294.374C201.511 294.374 201.31 294.759 201.31 295.233V420.608Z" fill="black"/>
<path d="M150.734 337.305L45.1621 297.371L93.5081 253.141L199.08 293.075L150.734 337.305Z" fill="#D3833C"/>
<path d="M247.426 337.305L352.998 297.371L304.652 253.141L199.08 293.075L247.426 337.305Z" fill="#DC9C63"/>
</svg>
