<svg width="100" height="60" viewBox="0 0 100 60" fill="none" xmlns="http://www.w3.org/2000/svg">
<path d="M50.5312 3.3125L35.4062 15.5625C32.8906 17.5938 32.4062 21.25 34.3125 23.8594C36.3281 26.6406 40.25 27.1875 42.9531 25.0781L58.4688 13.0156C59.5625 12.1719 61.125 12.3594 61.9844 13.4531C62.8438 14.5469 62.6406 16.1094 61.5469 16.9688L58.2812 19.5L80 39.5V10H79.8906L79.2812 9.60938L67.9375 2.34375C65.5469 0.8125 62.75 0 59.9062 0C56.5 0 53.1875 1.17187 50.5312 3.3125ZM54.0938 22.75L46.0156 29.0312C41.0938 32.875 33.9531 31.875 30.2656 26.8125C26.7969 22.0469 27.6719 15.3906 32.25 11.6875L45.25 1.17188C43.4375 0.40625 41.4844 0.0156248 39.5 0.0156248C36.5625 -2.38651e-07 33.7031 0.875 31.25 2.5L20 10V45H24.4062L38.6875 58.0312C41.75 60.8281 46.4844 60.6094 49.2812 57.5469C50.1406 56.5938 50.7188 55.4844 51.0156 54.3281L53.6719 56.7656C56.7188 59.5625 61.4688 59.3594 64.2656 56.3125C64.9688 55.5469 65.4844 54.6562 65.8125 53.7344C68.8438 55.7656 72.9688 55.3438 75.5156 52.5625C78.3125 49.5156 78.1094 44.7656 75.0625 41.9688L54.0938 22.75ZM2.5 10C1.125 10 0 11.125 0 12.5V45C0 47.7656 2.23438 50 5 50H10C12.7656 50 15 47.7656 15 45V10H2.5ZM7.5 40C8.16304 40 8.79893 40.2634 9.26777 40.7322C9.73661 41.2011 10 41.837 10 42.5C10 43.163 9.73661 43.7989 9.26777 44.2678C8.79893 44.7366 8.16304 45 7.5 45C6.83696 45 6.20107 44.7366 5.73223 44.2678C5.26339 43.7989 5 43.163 5 42.5C5 41.837 5.26339 41.2011 5.73223 40.7322C6.20107 40.2634 6.83696 40 7.5 40ZM85 10V45C85 47.7656 87.2344 50 90 50H95C97.7656 50 100 47.7656 100 45V12.5C100 11.125 98.875 10 97.5 10H85ZM90 42.5C90 41.837 90.2634 41.2011 90.7322 40.7322C91.2011 40.2634 91.837 40 92.5 40C93.163 40 93.7989 40.2634 94.2678 40.7322C94.7366 41.2011 95 41.837 95 42.5C95 43.163 94.7366 43.7989 94.2678 44.2678C93.7989 44.7366 93.163 45 92.5 45C91.837 45 91.2011 44.7366 90.7322 44.2678C90.2634 43.7989 90 43.163 90 42.5Z" fill="#333333"/>
</svg>
