<svg width="57" height="54" viewBox="0 0 57 54" fill="none" xmlns="http://www.w3.org/2000/svg">
<rect width="57" height="54" fill="white"/>
<path d="M37.2282 5L39.2324 5.54149C41.6833 6.20473 43.9176 7.49895 45.7122 9.29509C47.5069 11.0912 48.7993 13.3265 49.4606 15.778L50 17.7801L45.9959 18.861L45.4544 16.8589C44.9819 15.1078 44.0585 13.5112 42.7764 12.2284C41.4942 10.9455 39.8981 10.0212 38.1473 9.54771L36.1452 9.00414L37.2282 5ZM6.00006 5.44191H23.8009L26.8859 19.3216L23.027 23.1805C25.2959 26.7116 28.2982 29.7132 31.8299 31.9813L35.6888 28.1245L49.5685 31.2095V49.0103H47.4938C39.5069 49.0239 31.6876 46.7206 24.9834 42.3796C20.0399 39.1804 15.83 34.9704 12.6308 30.0269C8.28973 23.3228 5.98644 15.5034 6.00006 7.51659V5.44191ZM10.2054 9.59128C10.5551 16.0641 12.5928 22.3327 16.1162 27.7738C18.9966 32.2239 22.7864 36.0138 27.2365 38.8941C32.6777 42.4175 38.9463 44.4553 45.4191 44.8049V34.5373L37.0104 32.6701L32.5 37.1825L31.1245 36.4004C25.9018 33.4325 21.5779 29.1086 18.61 23.8859L17.8278 22.5104L22.3403 18L20.4731 9.59128H10.2054ZM35.332 12.0083L37.3361 12.5498C38.5616 12.8814 39.6787 13.5285 40.576 14.4266C41.4734 15.3247 42.1196 16.4423 42.4502 17.668L42.9896 19.6701L38.9855 20.751L38.444 18.7489C38.3021 18.2236 38.0249 17.7446 37.6402 17.3598C37.2554 16.9751 36.7764 16.6979 36.2511 16.556L34.249 16.0145L35.332 12.0083Z" fill="#FF8A00"/>
</svg>
